<?xml version="1.0" encoding="utf-8"?>
<!-- Generator: Adobe Illustrator 19.1.0, SVG Export Plug-In . SVG Version: 6.00 Build 0)  -->
<!DOCTYPE svg PUBLIC "-//W3C//DTD SVG 1.1//EN" "http://www.w3.org/Graphics/SVG/1.1/DTD/svg11.dtd">
<svg version="1.1" id="Layer_1" xmlns="http://www.w3.org/2000/svg" xmlns:xlink="http://www.w3.org/1999/xlink" x="0px" y="0px"
	 viewBox="-280 372 50 50" enable-background="new -280 372 50 50" xml:space="preserve">
<g>
	<path fill="#FFFFFF" d="M-253,421.8h2.9c0-1,0.1-1.9,0.1-3c0-1.3,0.2-2.6,0.6-3.7h-3.8C-252.6,417.2-253,419.4-253,421.8
		L-253,421.8z M-279.8,401.6c0.7-1.6,6-2.5,7.3-2.2c3.1,0.8,3.3,1.1,6.3,4.2c-0.7,0.5-0.5,0.1-3.2,0.3c-1,0.1-4.9,0-5.7-0.4
		C-276.1,403.1-279.2,402.6-279.8,401.6L-279.8,401.6z M-265.3,406c-1.1-1.1-6.2,0.8-7.4,1.8c-2.7,2.4-2.8,2.8-4.8,7.3
		c0.8,0.1,0.5-0.2,3.1-1.4c0.9-0.5,4.5-2.6,5.2-3.3C-268.3,409.3-265.6,407.2-265.3,406L-265.3,406z M-277.2,391.9
		c1.1-1,6.2,1,7.3,2.1c2.6,2.5,2.8,2.9,4.6,7.5c-0.8,0.1-0.5-0.2-3.1-1.6c-0.9-0.5-4.5-2.8-5.1-3.6
		C-274.2,395.4-276.9,393.1-277.2,391.9L-277.2,391.9z M-248.1,394.6c0.9-1.9,7.1-3,8.7-2.5c3.7,1,3.9,1.3,7.5,5.1
		c-0.8,0.6-0.6,0.1-3.8,0.3c-1.2,0.1-5.8,0-6.8-0.5C-243.8,396.4-247.4,395.7-248.1,394.6L-248.1,394.6z M-247.9,397.6
		c1.1-1,6.2,1.3,7.3,2.4c2.6,2.6,2.7,3,4.5,7.6c-0.8,0.1-0.5-0.2-3-1.7c-0.9-0.5-4.4-2.9-5.1-3.8
		C-245,401.1-247.7,398.8-247.9,397.6L-247.9,397.6z M-271.5,373c1.1-1.1,6.2,0.6,7.4,1.6c2.7,2.3,2.8,2.7,4.9,7.1
		c-0.8,0.3-0.6-0.1-3.2-1.3c-0.9-0.4-4.5-2.4-5.2-3.2C-268.5,376.3-271.2,374.2-271.5,373L-271.5,373z M-248.8,392.2
		c0.1-2.3,5.2-7.6,6.8-8.4c3.6-1.7,7.4-1.1,11.8-0.3c-4.2,0.9-7.1,3.5-8.4,4.1c-1.2,0.6-3.5,2.4-4.5,2.7
		C-244.4,390.7-247.8,392.7-248.8,392.2L-248.8,392.2z M-259.1,384.5c-0.7-2-6.8-4.3-8.5-4.2c-3.8,0.3-7.2,2.9-11.1,6
		c4.1-1.4,7.5-0.6,8.9-0.6c1.2-0.1,3.9,0.4,4.9,0.1C-263.7,385.5-259.9,385.5-259.1,384.5L-259.1,384.5z M-254.6,372.7
		c-0.6,3.4-0.9,3.7-1.2,7.7c0,0.7,0.2,6.6,0.6,7.4c0.1,0.3,0.5,0.9,0.6,1.3l0.1,0.3h-4.2c0.1-0.7,0.2-1.1,0.4-1.8
		c0-4.4-0.4-7.1,0-11.7c0-0.6-0.3-2.9,0-3.7h3.5C-254.5,372.3-254.5,372.2-254.6,372.7L-254.6,372.7z M-258.8,391.7
		c0.1,1.1,0.5,1.3,0.6,1.7c0.4,2,0.6,2,0.6,5.3c0,0.9-0.6,6.8-1,7.8c-0.1,0.2-0.3,0.5-0.4,0.8h4.2c0,0,0,0,0-0.1
		c-0.2-0.2-0.3-1.1-0.3-1.3c0.1-4.4,0.6-7.1,0.5-11.8c0-0.6,0.7-1.7,0.6-2.5h-4.8V391.7z M-256.1,421.8c-0.2-1-0.3-2.1-0.3-4.2
		c0-0.5,0.7-6.5,1-7.2c0.2-0.3,0.5-0.4,0.5-0.8v-0.2h-0.8h-0.1c-0.4,0-0.9,0-1.3,0h-1.3l0,0h-0.7c0,0.2,0.1,0.5,0.1,0.6
		c0.2,0.2,0.2,0.4,0.2,0.7c-0.1,4.3-0.6,6.7-0.5,11.1H-256.1L-256.1,421.8z M-260.5,407.7c-0.1,0.8-0.3,1.1-0.4,1.6
		c-0.2,1.4-0.3,2.4-0.2,5c0,0.5,0.5,4.6,0.8,6.8l0,0c0,0,0.1,0.3,0.1,0.5c0.1,0.1,0.1,0.2,0.2,0.3h-3.2l0,0c-0.2-4-0.7-7.5-0.7-11.7
		c0-0.5-0.4-1.8-0.4-2.4L-260.5,407.7L-260.5,407.7z M-264.3,405.5c0.1-0.9,0.4-1.5,0.5-2.3c0.2-1.1,0.3-2.4,0.2-4.5
		c0-0.8-0.7-6.7-1-7.3c-0.1-0.2-0.5-0.5-0.6-0.8l3.9-0.6c-0.1,0.2-0.2,0.5-0.2,0.6c-0.1,0.2-0.1,0.4-0.1,0.6c0.2,4,0.7,8.2,0.7,12.5
		c0,0.4,0.3,1.2,0.4,1.8H-264.3L-264.3,405.5z M-249.6,412.9c-0.9-2-0.9-4.2-0.9-6.6c0-0.4,0.3-2.6,0.6-4.3c0.2-1.3,0.2-1.8,0.8-2.7
		c0,0,0,0,0.1-0.1c0.1-0.2,0.2-0.4,0.3-0.6h-4.1c0.4,1.8,0.6,0.7,0.4,3.1c-0.3,2.9-0.3,4.9-0.3,8.5c0,0.3-0.3,2.4-0.4,2.7H-249.6
		L-249.6,412.9z M-248.8,396.3c-0.9-3.2-0.9-3.8-0.9-7.5c0-0.5,0.6-4.9,0.9-7.2l0,0c0,0,0.1-0.3,0.1-0.5c0.1-0.3,0.4-0.3,0.4-0.6
		l-3.8-0.5c0,0.1,0,0.2,0.1,0.3c0.1,0.2,0.1,0.4,0.2,0.7c-0.2,4.2-0.2,7.5-0.2,11.9c0,1.2-0.6,2.4-0.8,3.5h4V396.3z"/>
</g>
</svg>
