<?xml version="1.0" encoding="utf-8"?>
<!-- Generator: Adobe Illustrator 19.1.0, SVG Export Plug-In . SVG Version: 6.00 Build 0)  -->
<!DOCTYPE svg PUBLIC "-//W3C//DTD SVG 1.1//EN" "http://www.w3.org/Graphics/SVG/1.1/DTD/svg11.dtd">
<svg version="1.1" id="Layer_1" xmlns="http://www.w3.org/2000/svg" xmlns:xlink="http://www.w3.org/1999/xlink" x="0px" y="0px"
	 viewBox="0 0 50 50" enable-background="new 0 0 50 50" xml:space="preserve">
<g>
	<path fill-rule="evenodd" clip-rule="evenodd" fill="#FFFFFF" d="M19.9,32.4c13.1,0,26.9,4.9,26.9,10.1c0,5.2-13.7,7.4-26.9,7.4
		c-13.1,0-19-4.2-19-9.4C0.8,35.3,6.7,32.4,19.9,32.4L19.9,32.4z M20.2,34.6c8,0.1,16.7,2.2,22.1,5.1c-7.1-1.9-16.1-3.2-24.5-3.3
		c-4.3-0.1-8,0.2-11.2,0.6C9.7,35.4,14.2,34.5,20.2,34.6L20.2,34.6z"/>
	<path fill-rule="evenodd" clip-rule="evenodd" fill="#FFFFFF" d="M32.7,18.3c-11.4,0-23.3,3-23.2,8.7c0.1,5.8,11.9,6.4,23.2,6.4
		c11.4,0,16.4-3.6,16.4-8.1C49.2,20.8,44.1,18.3,32.7,18.3L32.7,18.3z M34.6,20.3C27.7,19.9,20,21.4,15.1,24
		c6.3-1.5,14.2-2.2,21.5-1.8c3.7,0.2,6.9,0.7,9.6,1.3C43.6,21.8,39.8,20.6,34.6,20.3L34.6,20.3z"/>
	<path fill-rule="evenodd" clip-rule="evenodd" fill="#FFFFFF" d="M23.3,7.7c8.6,0,17.5,2.4,17.5,6.6c0,4.2-8.9,4.8-17.5,4.8
		C14.8,19.1,11,17,11,13S14.8,7.7,23.3,7.7L23.3,7.7z M23.2,9.2c5.5-0.2,11.7,1.5,15.5,4.2c-5-1.6-11.3-2.5-17.1-2.3
		c-3,0.1-5.5,0.5-7.7,1.1C16,10.4,19.1,9.4,23.2,9.2L23.2,9.2z"/>
	<path fill-rule="evenodd" clip-rule="evenodd" fill="#FFFFFF" d="M25.8,0.1c3.2,0,5.8,1.8,5.8,3.9C31.6,6.2,29,8,25.8,8
		c-3.2,0-5.8-1.8-5.8-3.9C20.1,1.9,22.7,0.1,25.8,0.1L25.8,0.1z M27.2,1.4c1.7,0.5,3,1.8,3.2,3.4c-0.9-1-2.2-1.8-3.8-2.2
		c-1.3-0.4-2.6-0.4-3.8-0.2C24,1.4,25.6,1,27.2,1.4L27.2,1.4z"/>
</g>
</svg>
