<?xml version="1.0" encoding="utf-8"?>
<!-- Generator: Adobe Illustrator 19.1.0, SVG Export Plug-In . SVG Version: 6.00 Build 0)  -->
<!DOCTYPE svg PUBLIC "-//W3C//DTD SVG 1.1//EN" "http://www.w3.org/Graphics/SVG/1.1/DTD/svg11.dtd">
<svg version="1.1" id="Layer_1" xmlns="http://www.w3.org/2000/svg" xmlns:xlink="http://www.w3.org/1999/xlink" x="0px" y="0px"
	 viewBox="0 0 50 50" enable-background="new 0 0 50 50" xml:space="preserve">
<g>
	<path fill="#FFFFFF" d="M33.6,14.6L29.4,0.2C28.8,2.7,28.8,5.3,29,8c0.2,2.8,1.2,14.4,2,16.7L33.6,14.6L33.6,14.6z M25.8,31.7
		c0.9,0,3.3,0.6,4.1,0.9l8.9-32.5c0.6,2.5,0.6,5.1,0.5,7.7c-0.2,2.5-1.6,16.9-2.9,18.2c-3,3.1-4.8,7.9-4.8,12c0,1.8-0.7,3.3-1.9,4.5
		c-1.8,1.8-3.8,1.5-4.4,3.2c-0.5,1.7,0.9,3.4,0.1,3.8C23,50.9,22.6,45,23.7,44c-1.1-0.3-1.6-0.7-2.4-1.4c-2.2-2.2-1.6-6.9,0.5-9
		C23,32.4,24,31.7,25.8,31.7L25.8,31.7z M34.2,23.6c-0.7,0-1.3,0.6-1.3,1.3c0,0.7,0.6,1.3,1.3,1.3c0.7,0,1.3-0.6,1.3-1.3
		C35.5,24.2,34.9,23.6,34.2,23.6L34.2,23.6z M37.2,27l1.2,5.8c0.8-0.4,3.2-1,4.1-1c1.8,0,2.7,0.7,3.9,1.9c2.1,2.1,2.7,6.9,0.6,9
		c-1.2,1.1-2.7,1.9-4.5,1.9c-1.8,0-2.8-0.7-4-1.9c-1.1-1.1-1.9-2.7-1.9-4.5c0-3.6-0.5-4.7-1.9-7.7C35.5,28.9,35.8,28.1,37.2,27
		L37.2,27z M44.8,35.1c-0.8-0.8-1.2-1.2-2.4-1.2c-1.2,0-2.2,0.5-3,1.2l0,0c-0.8,0.8-0.7,1.8-0.7,3s0.5,2.2,1.2,3
		c0.8,0.8,1.3,1.2,2.5,1.2c1.2,0,2.2-0.5,3-1.2C46.7,39.8,46.1,36.4,44.8,35.1L44.8,35.1z M28.8,35.1c-0.8-0.8-1.8-1.2-3-1.2
		c-1.2,0-1.7,0.5-2.5,1.2c-1.3,1.3-1.9,4.7-0.5,6c0.8,0.8,1.9,1.2,3,1.2c1.2,0,1.7-0.5,2.5-1.2c0.8-0.8,1.2-1.8,1.2-3
		C29.5,36.9,29.6,35.8,28.8,35.1L28.8,35.1z"/>
	<path fill-rule="evenodd" clip-rule="evenodd" fill="#FFFFFF" d="M1.8,11.6c0,6.3,2.7,8.1,3,14.2c0.6,7.7-1.6,11-1.4,14
		c0.2,3,3.1,5.9,6.5,5.6c3.4-0.3,5.6-3.3,5.3-6.6c-0.2-2.6-3-6.1-3.7-13.8l0-1.7h8.4c1.6,0,1.6-2.4,0-2.4h-9.5
		c-0.6,0-0.5-1.7,0.1-1.7h9.4c1.6,0,1.6-2.4,0-2.4h-9.6c-0.6,0-0.6-1.7,0-1.7h9.6c1.6,0,1.6-2.4,0-2.4h-9.6c-0.6,0-0.6-1.7,0-1.7
		h9.6c1.6,0,1.6-2.4,0-2.4h-9.6c-0.6,0-0.6-1.7,0-1.7h9.6c1.6,0,1.6-2.4,0-2.4h-9.4c-0.6,0-0.6-1.7,0-1.7h9.4c1.6,0,1.6-2.4,0-2.4H7
		C3.1,0.2,1.8,8.8,1.8,11.6L1.8,11.6z"/>
</g>
</svg>
