<?xml version="1.0" encoding="utf-8"?>
<!-- Generator: Adobe Illustrator 19.1.0, SVG Export Plug-In . SVG Version: 6.00 Build 0)  -->
<!DOCTYPE svg PUBLIC "-//W3C//DTD SVG 1.1//EN" "http://www.w3.org/Graphics/SVG/1.1/DTD/svg11.dtd">
<svg version="1.1" id="Layer_1" xmlns="http://www.w3.org/2000/svg" xmlns:xlink="http://www.w3.org/1999/xlink" x="0px" y="0px"
	 viewBox="-280 372 50 50" enable-background="new -280 372 50 50" xml:space="preserve">
<g>
	<path fill="#FFFFFF" d="M-254.3,404.6c-4.2,10.1,9.9,14.5,12.6,5.4c0.4-1.2,0.7-2.2,1-3.1c0.9-2.7,0.8-1.6-0.7-1.3
		c-1.2,0.2-1.9-0.5-1.3-1.8c0.3-0.5,1.1-1.1,1.9-1.8c2.4-2,3.2-6.2,3-9.2c-0.2-4-2.1-6.7-4.7-8.7c-3.9-0.6-11.2,8.6-7.7,15
		c0.4,0.8,0.9,1.5,0.9,2c0.1,2-1.9,2-3-0.6C-252.9,397.6-253.3,402.3-254.3,404.6L-254.3,404.6z M-234.6,395.5
		c0.8-1.3,1.6-3,2.6-5.8c2.9-8.1-2-14.9-7.3-16.8c-5.1-1.8-9.2,6.7-11.2,13c1.6-2.7,4-5,7-5.2l0.8-2.3c0.3-0.8,1.2-1.2,2-1l0,0
		c0.8,0.3,1.2,1.2,1,2l-0.6,1.8C-236.3,383.8-233.8,389.3-234.6,395.5L-234.6,395.5z"/>
	<path fill="#FFFFFF" d="M-258.6,411.9c2.8,10.6-11.8,12.9-13.3,3.5c-0.2-1.2-0.4-2.3-0.6-3.2c-0.5-2.9-0.5-1.7,1-1.1
		c1.1,0.4,2-0.2,1.6-1.6c-0.2-0.6-0.9-1.3-1.6-2c-2.1-2.3-2.2-6.6-1.6-9.5c0.8-3.9,3-6.3,5.9-8c4-0.1,9.8,10.1,5.5,15.9
		c-0.5,0.7-1.1,1.4-1.2,1.9c-0.4,2,1.6,2.2,3-0.2C-259,404.7-259.3,409.5-258.6,411.9L-258.6,411.9z M-276.8,400.1
		c-0.6-1.5-1.2-3.3-1.7-6.1c-1.7-8.4,4.1-14.5,9.6-15.6c5.3-1,8.1,8,9.2,14.4c-1.2-2.9-3.3-5.6-6.2-6.1l-0.5-2.3
		c-0.2-0.8-1-1.4-1.9-1.2l0,0c-0.8,0.2-1.4,1-1.2,1.9l0.4,1.9C-273.4,388.7-276.7,393.8-276.8,400.1L-276.8,400.1z"/>
</g>
</svg>
